<svg xmlns="http://www.w3.org/2000/svg" xmlns:xlink="http://www.w3.org/1999/xlink" width="1889" zoomAndPan="magnify" viewBox="0 0 1417.5 1417.500002" height="1889" preserveAspectRatio="xMidYMid meet" version="1.0"><defs><g/><clipPath id="5a99ce6458"><path d="M 1268 1268 L 1416.9375 1268 L 1416.9375 1416.9375 L 1268 1416.9375 Z M 1268 1268 " clip-rule="nonzero"/></clipPath><clipPath id="8ac8d70b74"><path d="M 225 0 L 1417 0 L 1417 1192 L 225 1192 Z M 225 0 " clip-rule="nonzero"/></clipPath><clipPath id="73c8bdee1d"><path d="M 441.863281 0 L 1416.824219 974.960938 L 1200.175781 1191.605469 L 225.21875 216.648438 Z M 441.863281 0 " clip-rule="nonzero"/></clipPath></defs><path fill="#6f0000" d="M 148.917969 77.054688 L 0 148.90625 L 0 -0.0117188 L 148.917969 -0.0117188 L 148.917969 77.054688 " fill-opacity="1" fill-rule="nonzero"/><g clip-path="url(#5a99ce6458)"><path fill="#6f0000" d="M 1416.949219 1416.9375 L 1268.03125 1416.9375 L 1339.882812 1268.015625 L 1416.949219 1268.015625 L 1416.949219 1416.9375 " fill-opacity="1" fill-rule="nonzero"/></g><path fill="#e82218" d="M 444.753906 -0.0117188 L 0 -0.0117188 L 1416.949219 1416.9375 L 1416.949219 972.183594 L 444.753906 -0.0117188 " fill-opacity="1" fill-rule="nonzero"/><path fill="#ffffff" d="M 365.414062 184.207031 L 363.921875 185.699219 C 355.660156 195.441406 351.621094 205.5 360.425781 214.289062 C 369.007812 222.886719 377.769531 219.492188 384.78125 212.484375 C 394.085938 203.175781 394.828125 194.304688 388.503906 172.917969 C 379.671875 144.128906 380.292969 128.433594 397.597656 111.125 C 416.382812 92.339844 440.675781 89.804688 462.679688 111.8125 C 488.949219 138.070312 477.675781 161.699219 462.414062 177.445312 L 461.121094 178.742188 L 438.441406 156.074219 L 439.683594 154.832031 C 446.507812 147.019531 452.476562 137.9375 444.238281 129.710938 C 437.597656 123.074219 430.296875 124.695312 423.078125 131.917969 C 415.683594 139.308594 414.878906 145.75 420.964844 164.789062 C 430.800781 195.941406 430.679688 213.722656 410.894531 233.5 C 392.609375 251.792969 366.710938 256.878906 341.707031 231.875 C 314.988281 205.144531 323.648438 180.828125 340.941406 162.492188 L 342.328125 161.105469 L 365.414062 184.207031 " fill-opacity="1" fill-rule="nonzero"/><path fill="#ffffff" d="M 480.09375 236.628906 L 487.773438 244.308594 C 498.136719 254.671875 507.152344 253.285156 518.386719 242.066406 L 519.640625 240.796875 C 530.214844 230.238281 530.613281 220.441406 522.136719 211.96875 L 513.4375 203.269531 Z M 508.566406 161.605469 L 543.667969 196.707031 C 563.230469 216.285156 565.910156 241.089844 542.691406 264.308594 L 541.332031 265.667969 C 518.640625 288.363281 494.679688 288.019531 472.171875 265.511719 L 461.691406 255.027344 L 415.316406 301.402344 L 392.042969 278.128906 L 508.566406 161.605469 " fill-opacity="1" fill-rule="nonzero"/><path fill="#ffffff" d="M 580.367188 365.019531 L 546.148438 330.800781 L 515.257812 361.691406 L 554.015625 400.449219 L 531.378906 417.464844 L 472.433594 358.523438 L 588.960938 242 L 647.796875 300.835938 L 627.679688 320.953125 L 591.824219 285.113281 L 566.109375 310.828125 L 600.339844 345.046875 L 580.367188 365.019531 " fill-opacity="1" fill-rule="nonzero"/><path fill="#ffffff" d="M 649.023438 464.671875 L 647.996094 465.703125 C 638.78125 474.179688 608.722656 498.878906 577.105469 467.261719 C 546.292969 436.449219 565.027344 407.367188 595.796875 376.597656 L 607.324219 365.070312 C 642.859375 329.535156 673.050781 322.273438 698.59375 347.804688 C 728.363281 377.574219 708.191406 404.582031 696.46875 417.03125 L 695.28125 418.230469 L 672.179688 395.117188 L 673.867188 393.441406 C 678.832031 387.976562 688.863281 376.980469 678.84375 366.960938 C 668.972656 357.085938 655.203125 365.363281 631.441406 389.125 L 619.191406 401.363281 C 599.863281 420.699219 586.09375 437.902344 596.65625 448.460938 C 606.476562 458.296875 618.265625 448.199219 624.234375 442.984375 L 625.777344 441.425781 L 649.023438 464.671875 " fill-opacity="1" fill-rule="nonzero"/><path fill="#ffffff" d="M 765.378906 418.417969 L 648.851562 534.957031 L 625.539062 511.640625 L 742.078125 395.105469 L 765.378906 418.417969 " fill-opacity="1" fill-rule="nonzero"/><path fill="#ffffff" d="M 753.800781 545.226562 C 769.785156 522.914062 784.292969 502.574219 794.234375 489.28125 L 793.574219 488.632812 C 781.8125 498.113281 759.753906 513.703125 737.761719 529.1875 Z M 714.105469 545.847656 L 682.410156 568.511719 L 659.03125 545.121094 L 799.59375 452.632812 L 831.117188 484.15625 L 738.921875 625.011719 L 714.605469 600.695312 L 737.152344 568.882812 L 714.105469 545.847656 " fill-opacity="1" fill-rule="nonzero"/><path fill="#ffffff" d="M 864.53125 517.570312 L 887.84375 540.882812 L 791 637.722656 L 827.765625 674.476562 L 805.96875 692.058594 L 748.003906 634.09375 L 864.53125 517.570312 " fill-opacity="1" fill-rule="nonzero"/><path fill="#ffffff" d="M 932.910156 688.785156 L 921.308594 700.390625 C 897.929688 723.769531 888.304688 739.832031 898.207031 749.734375 C 908.699219 760.230469 923.289062 751.214844 947.75 726.75 L 959.351562 715.148438 C 981.9375 692.5625 990.347656 678.476562 979.90625 668.035156 C 969.847656 657.960938 955.023438 666.675781 932.910156 688.785156 Z M 982.402344 740.03125 L 971.8125 750.617188 C 932.710938 789.71875 904.554688 794.722656 878.246094 768.402344 C 853.691406 743.859375 858.390625 715.386719 897.757812 676.019531 L 908.476562 665.300781 C 946.824219 626.953125 976.183594 625.367188 999.800781 648.984375 C 1024.394531 673.578125 1019.640625 702.792969 982.402344 740.03125 " fill-opacity="1" fill-rule="nonzero"/><path fill="#ffffff" d="M 1049.566406 702.605469 L 1108.574219 761.617188 L 1088.472656 781.71875 L 1052.628906 745.878906 L 1025.410156 773.101562 L 1059.179688 806.867188 L 1039.296875 826.734375 L 1005.527344 792.96875 L 956.210938 842.300781 L 933.042969 819.144531 L 1049.566406 702.605469 " fill-opacity="1" fill-rule="nonzero"/><path fill="#ffffff" d="M 1120.574219 773.613281 L 1179.570312 832.609375 L 1159.464844 852.714844 L 1123.625 816.875 L 1096.40625 844.09375 L 1130.171875 877.863281 L 1110.304688 897.742188 L 1076.539062 863.976562 L 1027.207031 913.292969 L 1004.050781 890.140625 L 1120.574219 773.613281 " fill-opacity="1" fill-rule="nonzero"/><path fill="#ffffff" d="M 1182.949219 967.601562 L 1148.734375 933.371094 L 1117.84375 964.277344 L 1156.601562 1003.035156 L 1133.960938 1020.0625 L 1075.019531 961.109375 L 1191.542969 844.582031 L 1250.378906 903.421875 L 1230.25 923.539062 L 1194.410156 887.699219 L 1168.691406 913.414062 L 1202.910156 947.628906 L 1182.949219 967.601562 " fill-opacity="1" fill-rule="nonzero"/><path fill="#ffffff" d="M 1238.539062 989.898438 L 1245.429688 996.804688 C 1256.386719 1007.746094 1264.78125 1007.972656 1276.320312 996.433594 L 1277.164062 995.589844 C 1286.539062 986.214844 1287.765625 977.542969 1278.117188 967.894531 L 1269.324219 959.101562 Z M 1220.136719 1008.261719 L 1171.148438 1057.238281 L 1148.019531 1034.121094 L 1264.546875 917.585938 L 1300.121094 953.160156 C 1321.269531 974.308594 1322.707031 996.472656 1301.546875 1017.632812 L 1300.714844 1018.453125 C 1283.910156 1035.257812 1268.675781 1033.503906 1260.414062 1030.058594 C 1264.730469 1042.519531 1262.195312 1053.660156 1245.230469 1070.625 L 1241.65625 1074.199219 C 1228.785156 1087.085938 1221.390625 1095.414062 1216.242188 1102.34375 L 1193.75 1079.835938 C 1197.496094 1072.894531 1208.320312 1061.582031 1218.871094 1051.019531 L 1222.25 1047.640625 C 1236.863281 1033.027344 1237.867188 1025.992188 1226.460938 1014.585938 L 1220.136719 1008.261719 " fill-opacity="1" fill-rule="nonzero"/><g clip-path="url(#8ac8d70b74)"><g clip-path="url(#73c8bdee1d)"><path fill="#e82218" d="M 441.863281 0 L 1416.773438 974.910156 L 1200.125 1191.554688 L 225.21875 216.648438 Z M 441.863281 0 " fill-opacity="1" fill-rule="nonzero"/></g></g><g fill="#ffffff" fill-opacity="1"><g transform="translate(347.349337, 219.182784)"><g><path d="M 87.640625 -0.734375 C 84.085938 -7.953125 81.054688 -14.703125 78.546875 -20.984375 C 76.046875 -27.273438 74.550781 -33.351562 74.0625 -39.21875 C 73.570312 -45.082031 74.304688 -50.765625 76.265625 -56.265625 C 78.222656 -61.765625 81.894531 -67.207031 87.28125 -72.59375 C 97.664062 -82.976562 109.972656 -87.285156 124.203125 -85.515625 C 138.429688 -83.742188 152.757812 -75.644531 167.1875 -61.21875 C 172.4375 -55.96875 176.957031 -50.710938 180.75 -45.453125 C 184.550781 -40.203125 187.300781 -35.191406 189 -30.421875 C 190.707031 -25.660156 191.285156 -21.171875 190.734375 -16.953125 C 190.191406 -12.742188 188.332031 -9.050781 185.15625 -5.875 C 181.976562 -2.695312 178.523438 -0.710938 174.796875 0.078125 C 171.078125 0.878906 167.382812 1.039062 163.71875 0.5625 C 162.726562 -3.84375 160.613281 -8.945312 157.375 -14.75 C 154.144531 -20.5625 149.84375 -26.15625 144.46875 -31.53125 C 138.96875 -37.03125 134.171875 -40.300781 130.078125 -41.34375 C 125.984375 -42.382812 122.773438 -41.742188 120.453125 -39.421875 C 118.617188 -37.585938 117.910156 -35.289062 118.328125 -32.53125 C 118.753906 -29.78125 120.070312 -26.332031 122.28125 -22.1875 L 128.890625 -9.359375 C 136.703125 5.804688 140.851562 19.316406 141.34375 31.171875 C 141.832031 43.023438 137.1875 53.84375 127.40625 63.625 C 117.019531 74.007812 104.523438 78.3125 89.921875 76.53125 C 75.316406 74.75 60.070312 65.914062 44.1875 50.03125 C 38.570312 44.414062 33.804688 38.738281 29.890625 33 C 25.972656 27.257812 23.097656 21.695312 21.265625 16.3125 C 19.429688 10.925781 18.820312 5.914062 19.4375 1.28125 C 20.050781 -3.351562 22.070312 -7.382812 25.5 -10.8125 C 29.039062 -14.351562 33.097656 -16.335938 37.671875 -16.765625 C 42.253906 -17.203125 46.441406 -16.867188 50.234375 -15.765625 C 50.960938 -9.660156 52.820312 -3.160156 55.8125 3.734375 C 58.8125 10.640625 63.25 17.03125 69.125 22.90625 C 75.113281 28.894531 80.242188 32.191406 84.515625 32.796875 C 88.796875 33.410156 92.15625 32.5 94.59375 30.0625 C 97.03125 27.625 97.914062 24.785156 97.25 21.546875 C 96.582031 18.304688 95.085938 14.296875 92.765625 9.515625 Z M 87.640625 -0.734375 "/></g></g></g><g fill="#ffffff" fill-opacity="1"><g transform="translate(477.146199, 348.979646)"><g><path d="M 113.109375 -6.046875 C 118.242188 -0.910156 123.378906 1.835938 128.515625 2.203125 C 133.648438 2.566406 138.660156 0.304688 143.546875 -4.578125 C 148.191406 -9.222656 150.328125 -14.234375 149.953125 -19.609375 C 149.585938 -24.992188 146.65625 -30.4375 141.15625 -35.9375 C 139.207031 -37.882812 137.554688 -39.46875 136.203125 -40.6875 C 134.859375 -41.914062 133.394531 -43.082031 131.8125 -44.1875 L 103.390625 -15.765625 Z M 44.734375 43.265625 C 43.023438 42.285156 40.546875 40.539062 37.296875 38.03125 C 34.054688 35.53125 31.03125 32.875 28.21875 30.0625 C 25.414062 27.257812 23.15625 24.570312 21.4375 22 C 19.726562 19.4375 18.691406 16.867188 18.328125 14.296875 C 17.972656 11.734375 18.40625 9.109375 19.625 6.421875 C 20.84375 3.734375 23.039062 0.800781 26.21875 -2.375 L 112.578125 -88.734375 C 115.140625 -91.296875 117.820312 -92.578125 120.625 -92.578125 C 123.4375 -92.585938 126.492188 -91.796875 129.796875 -90.203125 C 135.421875 -87.515625 141.222656 -83.84375 147.203125 -79.1875 C 153.191406 -74.539062 158.875 -69.53125 164.25 -64.15625 C 181.113281 -47.289062 190.398438 -30.789062 192.109375 -14.65625 C 193.828125 1.46875 188.515625 15.703125 176.171875 28.046875 C 170.179688 34.035156 163.828125 38.5 157.109375 41.4375 C 150.390625 44.375 143.425781 45.71875 136.21875 45.46875 C 129.007812 45.21875 121.613281 43.203125 114.03125 39.421875 C 106.445312 35.640625 98.925781 30.019531 91.46875 22.5625 L 78.453125 9.546875 Z M 44.734375 43.265625 "/></g></g></g><g fill="#ffffff" fill-opacity="1"><g transform="translate(612.442877, 484.276323)"><g><path d="M 105.96875 -82.125 C 111.226562 -87.382812 116.910156 -90.015625 123.015625 -90.015625 C 129.117188 -90.015625 134.800781 -87.382812 140.0625 -82.125 L 200.546875 -21.640625 C 200.066406 -19.429688 199.0625 -16.890625 197.53125 -14.015625 C 196 -11.140625 194.015625 -8.484375 191.578125 -6.046875 C 186.929688 -1.398438 182.617188 0.882812 178.640625 0.8125 C 174.671875 0.75 171.035156 -0.929688 167.734375 -4.234375 L 129.0625 -42.90625 L 112.015625 -25.859375 L 153.265625 15.390625 C 152.765625 17.597656 151.78125 20.101562 150.3125 22.90625 C 148.851562 25.71875 146.898438 28.347656 144.453125 30.796875 C 139.804688 35.441406 135.523438 37.757812 131.609375 37.75 C 127.703125 37.75 124.101562 36.101562 120.8125 32.8125 L 87.078125 -0.921875 L 67.828125 18.328125 L 114.953125 65.453125 C 114.460938 67.648438 113.445312 70.179688 111.90625 73.046875 C 110.375 75.921875 108.390625 78.578125 105.953125 81.015625 C 101.304688 85.660156 96.96875 87.984375 92.9375 87.984375 C 88.914062 87.992188 85.253906 86.347656 81.953125 83.046875 L 28.421875 29.515625 C 23.160156 24.253906 20.53125 18.566406 20.53125 12.453125 C 20.539062 6.347656 23.171875 0.671875 28.421875 -4.578125 Z M 105.96875 -82.125 "/></g></g></g><g fill="#ffffff" fill-opacity="1"><g transform="translate(741.689773, 613.52322)"><g><path d="M 157.296875 -20.171875 C 147.890625 -29.578125 137.804688 -33.914062 127.046875 -33.1875 C 116.285156 -32.457031 105.648438 -26.835938 95.140625 -16.328125 C 84.503906 -5.691406 79.09375 5.273438 78.90625 16.578125 C 78.726562 27.890625 83.347656 38.253906 92.765625 47.671875 C 97.765625 52.671875 102.675781 56.238281 107.5 58.375 C 112.332031 60.519531 117.195312 62.332031 122.09375 63.8125 C 122.457031 67.59375 122.03125 71.253906 120.8125 74.796875 C 119.59375 78.335938 117.390625 81.703125 114.203125 84.890625 C 109.191406 89.898438 102.164062 91.363281 93.125 89.28125 C 84.082031 87.195312 73.878906 80.472656 62.515625 69.109375 C 54.328125 60.921875 47.785156 52.054688 42.890625 42.515625 C 38.003906 32.984375 35.285156 23.113281 34.734375 12.90625 C 34.191406 2.707031 36.054688 -7.640625 40.328125 -18.140625 C 44.609375 -28.648438 51.882812 -39.039062 62.15625 -49.3125 C 71.6875 -58.84375 81.582031 -65.742188 91.84375 -70.015625 C 102.113281 -74.296875 112.347656 -76.34375 122.546875 -76.15625 C 132.753906 -75.976562 142.625 -73.6875 152.15625 -69.28125 C 161.695312 -64.882812 170.4375 -58.71875 178.375 -50.78125 C 189.613281 -39.539062 196.488281 -29 199 -19.15625 C 201.507812 -9.3125 199.890625 -1.515625 194.140625 4.234375 C 190.972656 7.398438 187.429688 9.347656 183.515625 10.078125 C 179.597656 10.804688 175.929688 10.804688 172.515625 10.078125 C 171.410156 4.828125 169.789062 -0.332031 167.65625 -5.40625 C 165.519531 -10.476562 162.066406 -15.398438 157.296875 -20.171875 Z M 157.296875 -20.171875 "/></g></g></g><g fill="#ffffff" fill-opacity="1"><g transform="translate(875.153227, 746.986673)"><g><path d="M 44.734375 43.265625 C 43.023438 42.285156 40.546875 40.539062 37.296875 38.03125 C 34.054688 35.53125 31.03125 32.875 28.21875 30.0625 C 25.414062 27.257812 23.15625 24.570312 21.4375 22 C 19.726562 19.4375 18.691406 16.867188 18.328125 14.296875 C 17.972656 11.734375 18.40625 9.109375 19.625 6.421875 C 20.84375 3.734375 23.039062 0.800781 26.21875 -2.375 L 123.015625 -99.171875 C 124.609375 -98.078125 127.082031 -96.273438 130.4375 -93.765625 C 133.800781 -91.265625 136.828125 -88.671875 139.515625 -85.984375 C 142.328125 -83.171875 144.585938 -80.476562 146.296875 -77.90625 C 148.015625 -75.34375 149.050781 -72.773438 149.40625 -70.203125 C 149.769531 -67.640625 149.34375 -65.015625 148.125 -62.328125 C 146.90625 -59.640625 144.707031 -56.707031 141.53125 -53.53125 Z M 44.734375 43.265625 "/></g></g></g><g fill="#ffffff" fill-opacity="1"><g transform="translate(959.851283, 831.684729)"><g><path d="M 143.359375 -72.234375 C 146.660156 -71.367188 150.96875 -69.378906 156.28125 -66.265625 C 161.59375 -63.148438 166.390625 -59.453125 170.671875 -55.171875 C 176.773438 -49.066406 181.296875 -42.773438 184.234375 -36.296875 C 187.171875 -29.816406 187.421875 -24.015625 184.984375 -18.890625 C 180.816406 -10.328125 175.800781 -0.546875 169.9375 10.453125 C 164.070312 21.453125 157.929688 32.722656 151.515625 44.265625 C 145.109375 55.816406 138.753906 67.179688 132.453125 78.359375 C 126.160156 89.546875 120.566406 99.421875 115.671875 107.984375 C 112.492188 108.222656 108.921875 107.394531 104.953125 105.5 C 100.984375 103.601562 96.984375 100.640625 92.953125 96.609375 C 90.015625 93.671875 87.78125 90.945312 86.25 88.4375 C 84.726562 85.9375 83.8125 83.554688 83.5 81.296875 C 83.1875 79.035156 83.429688 76.710938 84.234375 74.328125 C 85.035156 71.941406 86.171875 69.410156 87.640625 66.734375 L 96.984375 50.765625 L 63.8125 17.59375 C 59.15625 20.289062 54.378906 23.101562 49.484375 26.03125 C 44.597656 28.96875 39.832031 31.78125 35.1875 34.46875 C 32.875 33.363281 30.554688 32.078125 28.234375 30.609375 C 25.910156 29.140625 23.40625 27.0625 20.71875 24.375 C 14.488281 18.144531 10.941406 12.460938 10.078125 7.328125 C 9.222656 2.203125 10.691406 -2.253906 14.484375 -6.046875 C 16.203125 -7.765625 18.15625 -9.234375 20.34375 -10.453125 C 22.539062 -11.679688 25.101562 -13.144531 28.03125 -14.84375 C 32.1875 -17.289062 37.472656 -20.191406 43.890625 -23.546875 C 50.316406 -26.910156 57.285156 -30.515625 64.796875 -34.359375 C 72.316406 -38.210938 80.109375 -42.09375 88.171875 -46 C 96.242188 -49.914062 103.851562 -53.613281 111 -57.09375 C 118.15625 -60.582031 124.570312 -63.640625 130.25 -66.265625 C 135.9375 -68.898438 140.304688 -70.890625 143.359375 -72.234375 Z M 141.703125 -26.578125 C 134.859375 -23.148438 127.21875 -19.359375 118.78125 -15.203125 C 110.351562 -11.054688 102.046875 -6.597656 93.859375 -1.828125 L 116.59375 20.90625 C 121.476562 12.582031 126.179688 4.390625 130.703125 -3.671875 C 135.222656 -11.734375 139.257812 -19 142.8125 -25.46875 Z M 141.703125 -26.578125 "/></g></g></g><g fill="#ffffff" fill-opacity="1"><g transform="translate(1103.581078, 975.414525)"><g><path d="M 28.421875 29.515625 C 23.160156 24.253906 20.53125 18.566406 20.53125 12.453125 C 20.539062 6.347656 23.171875 0.671875 28.421875 -4.578125 L 123.203125 -99.359375 C 124.785156 -98.253906 127.253906 -96.445312 130.609375 -93.9375 C 133.972656 -91.4375 137 -88.84375 139.6875 -86.15625 C 142.5 -83.34375 144.757812 -80.648438 146.46875 -78.078125 C 148.1875 -75.515625 149.226562 -72.953125 149.59375 -70.390625 C 149.957031 -67.828125 149.523438 -65.195312 148.296875 -62.5 C 147.078125 -59.8125 144.882812 -56.882812 141.71875 -53.71875 L 69.296875 18.703125 L 111.28125 60.6875 C 110.789062 62.882812 109.78125 65.476562 108.25 68.46875 C 106.71875 71.457031 104.734375 74.171875 102.296875 76.609375 C 97.398438 81.503906 92.90625 83.921875 88.8125 83.859375 C 84.726562 83.804688 80.972656 82.066406 77.546875 78.640625 Z M 28.421875 29.515625 "/></g></g></g></svg>